<?xml version="1.0" encoding="UTF-8"?>
<svg xmlns="http://www.w3.org/2000/svg" xmlns:xlink="http://www.w3.org/1999/xlink"
     width="1024" height="1024" viewBox="0 0 1024 1024">
  <defs>
    <linearGradient id="shell" x1="164" y1="96" x2="844" y2="950" gradientUnits="userSpaceOnUse">
      <stop offset="0" stop-color="#352071"/>
      <stop offset="0.43" stop-color="#211044"/>
      <stop offset="1" stop-color="#09071d"/>
    </linearGradient>
    <radialGradient id="violetBloom" cx="0" cy="0" r="1" gradientTransform="translate(705 247) rotate(128) scale(655 598)" gradientUnits="userSpaceOnUse">
      <stop offset="0" stop-color="#a855f7" stop-opacity=".76"/>
      <stop offset=".38" stop-color="#6935be" stop-opacity=".30"/>
      <stop offset="1" stop-color="#120a2c" stop-opacity="0"/>
    </radialGradient>
    <radialGradient id="amberBloom" cx="0" cy="0" r="1" gradientTransform="translate(760 202) rotate(133) scale(480 390)" gradientUnits="userSpaceOnUse">
      <stop offset="0" stop-color="#ffbf3f" stop-opacity=".30"/>
      <stop offset=".52" stop-color="#f59e0b" stop-opacity=".08"/>
      <stop offset="1" stop-color="#f59e0b" stop-opacity="0"/>
    </radialGradient>
    <linearGradient id="rim" x1="198" y1="62" x2="778" y2="974" gradientUnits="userSpaceOnUse">
      <stop stop-color="#ffffff" stop-opacity=".42"/>
      <stop offset=".31" stop-color="#dfc8ff" stop-opacity=".12"/>
      <stop offset=".75" stop-color="#8b5cf6" stop-opacity=".04"/>
      <stop offset="1" stop-color="#000000" stop-opacity=".44"/>
    </linearGradient>
    <linearGradient id="goldFace" x1="-74" y1="-84" x2="75" y2="89" gradientUnits="userSpaceOnUse">
      <stop stop-color="#fff8c9"/>
      <stop offset=".28" stop-color="#ffe176"/>
      <stop offset=".68" stop-color="#ffb51f"/>
      <stop offset="1" stop-color="#e87908"/>
    </linearGradient>
    <linearGradient id="goldCore" x1="-72" y1="-86" x2="72" y2="88" gradientUnits="userSpaceOnUse">
      <stop stop-color="#ffffff"/>
      <stop offset=".23" stop-color="#fff3ad"/>
      <stop offset=".64" stop-color="#ffc72f"/>
      <stop offset="1" stop-color="#f08a08"/>
    </linearGradient>
    <linearGradient id="goldEdge" x1="0" y1="-18" x2="0" y2="105" gradientUnits="userSpaceOnUse">
      <stop stop-color="#d56b05"/>
      <stop offset="1" stop-color="#7c2906"/>
    </linearGradient>
    <filter id="shellShadow" x="-12%" y="-12%" width="124%" height="130%">
      <feGaussianBlur in="SourceAlpha" stdDeviation="24"/>
      <feOffset dy="25"/>
      <feColorMatrix values="0 0 0 0 0.02 0 0 0 0 0.01 0 0 0 0 0.08 0 0 0 .65 0"/>
      <feBlend in="SourceGraphic"/>
    </filter>
    <filter id="clusterShadow" x="-30%" y="-30%" width="160%" height="175%">
      <feGaussianBlur in="SourceAlpha" stdDeviation="19" result="blur"/>
      <feOffset in="blur" dy="29" result="offset"/>
      <feColorMatrix in="offset" values="0 0 0 0 0.035 0 0 0 0 0.012 0 0 0 0 0.08 0 0 0 .78 0"/>
      <feBlend in="SourceGraphic"/>
    </filter>
    <filter id="softGlow" x="-30%" y="-30%" width="160%" height="160%">
      <feGaussianBlur stdDeviation="22"/>
    </filter>
    <filter id="grain" x="0" y="0" width="100%" height="100%">
      <feTurbulence type="fractalNoise" baseFrequency=".58" numOctaves="3" seed="18" result="noise"/>
      <feColorMatrix in="noise" values="1 0 0 0 0 0 1 0 0 0 0 0 1 0 0 0 0 0 .055 0"/>
    </filter>
    <clipPath id="shellClip">
      <path d="M234 48C121 48 69 105 52 216C36 319 36 705 52 808C69 919 121 976 234 976H790C903 976 955 919 972 808C988 705 988 319 972 216C955 105 903 48 790 48Z"/>
    </clipPath>
    <g id="cell">
      <path d="M-106 14L-53-78H53L106 14V35L53 127H-53L-106 35Z" fill="url(#goldEdge)"/>
      <path d="M-106 0L-53-92H53L106 0L53 92H-53Z" fill="url(#goldFace)" stroke="#fff5b1" stroke-opacity=".48" stroke-width="5"/>
      <path d="M-51-83H48L94-3" fill="none" stroke="#ffffff" stroke-opacity=".54" stroke-width="8" stroke-linecap="round"/>
      <path d="M-90 7L-46 82H46" fill="none" stroke="#a94705" stroke-opacity=".16" stroke-width="8" stroke-linecap="round"/>
    </g>
    <g id="coreCell">
      <path d="M-106 14L-53-78H53L106 14V35L53 127H-53L-106 35Z" fill="url(#goldEdge)"/>
      <path d="M-106 0L-53-92H53L106 0L53 92H-53Z" fill="url(#goldCore)" stroke="#ffffff" stroke-opacity=".64" stroke-width="6"/>
      <path d="M-51-83H48L94-3" fill="none" stroke="#ffffff" stroke-opacity=".74" stroke-width="9" stroke-linecap="round"/>
    </g>
  </defs>

  <path d="M234 48C121 48 69 105 52 216C36 319 36 705 52 808C69 919 121 976 234 976H790C903 976 955 919 972 808C988 705 988 319 972 216C955 105 903 48 790 48Z"
        fill="#080617" filter="url(#shellShadow)"/>
  <g clip-path="url(#shellClip)">
    <rect x="38" y="38" width="948" height="948" fill="url(#shell)"/>
    <rect x="38" y="38" width="948" height="948" fill="url(#violetBloom)"/>
    <rect x="38" y="38" width="948" height="948" fill="url(#amberBloom)"/>
    <ellipse cx="512" cy="535" rx="355" ry="326" fill="#b56dff" opacity=".11" filter="url(#softGlow)"/>
    <ellipse cx="512" cy="496" rx="264" ry="224" fill="#ffb51f" opacity=".13" filter="url(#softGlow)"/>

    <g opacity=".12" fill="none" stroke="#dcbcff" stroke-width="2">
      <path d="M-23 282L92 83H322L437 282L322 481H92Z"/>
      <path d="M587 543L702 344H932L1047 543L932 742H702Z"/>
      <path d="M-95 760L20 561H250L365 760L250 959H20Z"/>
    </g>

    <g filter="url(#clusterShadow)">
      <use xlink:href="#cell" transform="translate(353 320)"/>
      <use xlink:href="#cell" transform="translate(671 320)"/>
      <use xlink:href="#cell" transform="translate(353 512)"/>
      <use xlink:href="#coreCell" transform="translate(512 512)"/>
      <use xlink:href="#cell" transform="translate(671 512)"/>
      <use xlink:href="#cell" transform="translate(353 704)"/>
      <use xlink:href="#cell" transform="translate(671 704)"/>
    </g>

    <rect x="38" y="38" width="948" height="948" filter="url(#grain)" opacity=".65"/>
    <path d="M224 67C129 67 86 111 70 220" fill="none" stroke="#ffffff" stroke-opacity=".29" stroke-width="13" stroke-linecap="round"/>
  </g>
  <path d="M234 48C121 48 69 105 52 216C36 319 36 705 52 808C69 919 121 976 234 976H790C903 976 955 919 972 808C988 705 988 319 972 216C955 105 903 48 790 48Z"
        fill="none" stroke="url(#rim)" stroke-width="8"/>
</svg>
