<?xml version="1.0" encoding="UTF-8"?>
<svg xmlns="http://www.w3.org/2000/svg" xmlns:xlink="http://www.w3.org/1999/xlink"
     width="1024" height="1024" viewBox="0 0 1024 1024">
  <defs>
    <linearGradient id="shell" x1="164" y1="96" x2="844" y2="950" gradientUnits="userSpaceOnUse">
      <stop offset="0" stop-color="#352071"/>
      <stop offset="0.43" stop-color="#28134d"/>
      <stop offset="1" stop-color="#15102f"/>
    </linearGradient>
    <radialGradient id="violetBloom" cx="0" cy="0" r="1" gradientTransform="translate(705 247) rotate(128) scale(655 598)" gradientUnits="userSpaceOnUse">
      <stop offset="0" stop-color="#a855f7" stop-opacity=".76"/>
      <stop offset=".38" stop-color="#6935be" stop-opacity=".30"/>
      <stop offset="1" stop-color="#120a2c" stop-opacity="0"/>
    </radialGradient>
    <radialGradient id="amberBloom" cx="0" cy="0" r="1" gradientTransform="translate(760 202) rotate(133) scale(480 390)" gradientUnits="userSpaceOnUse">
      <stop offset="0" stop-color="#ffbf3f" stop-opacity=".30"/>
      <stop offset=".52" stop-color="#f59e0b" stop-opacity=".08"/>
      <stop offset="1" stop-color="#f59e0b" stop-opacity="0"/>
    </radialGradient>
    <linearGradient id="ambientTop" x1="512" y1="54" x2="512" y2="530" gradientUnits="userSpaceOnUse">
      <stop stop-color="#ffffff" stop-opacity=".13"/>
      <stop offset=".46" stop-color="#d9b8ff" stop-opacity=".045"/>
      <stop offset="1" stop-color="#ffffff" stop-opacity="0"/>
    </linearGradient>
    <radialGradient id="lowerLift" cx="0" cy="0" r="1" gradientTransform="translate(512 850) rotate(90) scale(310 560)" gradientUnits="userSpaceOnUse">
      <stop stop-color="#6742a1" stop-opacity=".16"/>
      <stop offset="1" stop-color="#6742a1" stop-opacity="0"/>
    </radialGradient>
    <linearGradient id="ambientBottom" x1="512" y1="976" x2="512" y2="610" gradientUnits="userSpaceOnUse">
      <stop stop-color="#7043a7" stop-opacity=".18"/>
      <stop offset="1" stop-color="#7043a7" stop-opacity="0"/>
    </linearGradient>
    <linearGradient id="goldFace" x1="0" y1="-96" x2="0" y2="96" gradientUnits="userSpaceOnUse">
      <stop stop-color="#ffe58a"/>
      <stop offset=".54" stop-color="#ffc33e"/>
      <stop offset="1" stop-color="#f0a51d"/>
    </linearGradient>
    <linearGradient id="goldEdge" x1="0" y1="-18" x2="0" y2="105" gradientUnits="userSpaceOnUse">
      <stop stop-color="#c66b0a"/>
      <stop offset="1" stop-color="#843d08"/>
    </linearGradient>
    <filter id="shellShadow" x="-12%" y="-12%" width="124%" height="130%">
      <feGaussianBlur in="SourceAlpha" stdDeviation="24"/>
      <feOffset dy="25"/>
      <feColorMatrix values="0 0 0 0 0.02 0 0 0 0 0.01 0 0 0 0 0.08 0 0 0 .65 0"/>
      <feBlend in="SourceGraphic"/>
    </filter>
    <filter id="clusterShadow" x="-30%" y="-30%" width="160%" height="175%">
      <feGaussianBlur in="SourceAlpha" stdDeviation="19" result="blur"/>
      <feOffset in="blur" dy="29" result="offset"/>
      <feColorMatrix in="offset" values="0 0 0 0 0.035 0 0 0 0 0.012 0 0 0 0 0.08 0 0 0 .78 0"/>
      <feBlend in="SourceGraphic"/>
    </filter>
    <filter id="softGlow" x="-30%" y="-30%" width="160%" height="160%">
      <feGaussianBlur stdDeviation="22"/>
    </filter>
    <filter id="grain" x="0" y="0" width="100%" height="100%">
      <feTurbulence type="fractalNoise" baseFrequency=".58" numOctaves="3" seed="18" result="noise"/>
      <feColorMatrix in="noise" values="1 0 0 0 0 0 1 0 0 0 0 0 1 0 0 0 0 0 .055 0"/>
    </filter>
    <clipPath id="shellClip">
      <path d="M234 48C121 48 69 105 52 216C36 319 36 705 52 808C69 919 121 976 234 976H790C903 976 955 919 972 808C988 705 988 319 972 216C955 105 903 48 790 48Z"/>
    </clipPath>
    <g id="cell">
      <path d="M0-84L83-36V60L0 108L-83 60L-83-36Z" fill="url(#goldEdge)"/>
      <path d="M0-96L83-48V48L0 96L-83 48L-83-48Z" fill="url(#goldFace)" stroke="#d8840e" stroke-width="3"/>
      <path d="M-76-45L0-89L76-45" fill="none" stroke="#fff1ad" stroke-opacity=".58" stroke-width="5" stroke-linecap="round" stroke-linejoin="round"/>
    </g>
  </defs>

  <path d="M234 48C121 48 69 105 52 216C36 319 36 705 52 808C69 919 121 976 234 976H790C903 976 955 919 972 808C988 705 988 319 972 216C955 105 903 48 790 48Z"
        fill="#080617" filter="url(#shellShadow)"/>
  <g clip-path="url(#shellClip)">
    <rect x="38" y="38" width="948" height="948" fill="url(#shell)"/>
    <rect x="38" y="38" width="948" height="948" fill="url(#violetBloom)"/>
    <rect x="38" y="38" width="948" height="948" fill="url(#amberBloom)"/>
    <rect x="38" y="38" width="948" height="948" fill="url(#ambientTop)"/>
    <rect x="38" y="38" width="948" height="948" fill="url(#lowerLift)"/>
    <rect x="38" y="38" width="948" height="948" fill="url(#ambientBottom)"/>
    <ellipse cx="512" cy="535" rx="355" ry="326" fill="#b56dff" opacity=".11" filter="url(#softGlow)"/>
    <ellipse cx="512" cy="496" rx="264" ry="224" fill="#ffb51f" opacity=".13" filter="url(#softGlow)"/>

    <g opacity=".12" fill="none" stroke="#dcbcff" stroke-width="2">
      <path d="M-23 282L92 83H322L437 282L322 481H92Z"/>
      <path d="M587 543L702 344H932L1047 543L932 742H702Z"/>
      <path d="M-95 760L20 561H250L365 760L250 959H20Z"/>
    </g>

    <g filter="url(#clusterShadow)">
      <use xlink:href="#cell" transform="translate(328 304)"/>
      <use xlink:href="#cell" transform="translate(696 304)"/>
      <use xlink:href="#cell" transform="translate(328 512)"/>
      <use xlink:href="#cell" transform="translate(512 512)"/>
      <use xlink:href="#cell" transform="translate(696 512)"/>
      <use xlink:href="#cell" transform="translate(328 720)"/>
      <use xlink:href="#cell" transform="translate(696 720)"/>
    </g>

    <rect x="38" y="38" width="948" height="948" filter="url(#grain)" opacity=".65"/>
  </g>
</svg>
